PathFileType	3	(X/Y/Z)	D:\Jess\PFP\Labelled\PA03\20250519\SRRun01.trc
DataRate	CameraRate	NumFrames	NumMarkers	Units	OrigDataRate	OrigDataStartFrame	OrigNumFrames
250.0	250.0	4	33	mm	250.0	35000	2501
Frame#	Time	C7			T10			CLAV			LSHO			RSHO			LASIS			RASIS			LPSIS			RPSIS			LILCR			RILCR			LGTR			LTHI			LLTHI			LLEP			LPSH			LLSH			LDSH			LLMAL			LTOE			L5TH			LHEE			RGTR			RTHI			RLTHI			RLEP			RPSH			RLSH			RDSH			RLMAL			RTOE			R5TH			RHEE			
		X1	Y1	Z1	X2	Y2	Z2	X3	Y3	Z3	X4	Y4	Z4	X5	Y5	Z5	X6	Y6	Z6	X7	Y7	Z7	X8	Y8	Z8	X9	Y9	Z9	X10	Y10	Z10	X11	Y11	Z11	X12	Y12	Z12	X13	Y13	Z13	X14	Y14	Z14	X15	Y15	Z15	X16	Y16	Z16	X17	Y17	Z17	X18	Y18	Z18	X19	Y19	Z19	X20	Y20	Z20	X21	Y21	Z21	X22	Y22	Z22	X23	Y23	Z23	X24	Y24	Z24	X25	Y25	Z25	X26	Y26	Z26	X27	Y27	Z27	X28	Y28	Z28	X29	Y29	Z29	X30	Y30	Z30	X31	Y31	Z31	X32	Y32	Z32	X33	Y33	Z33	

1	139.996	631.5448615681382	1476.606078834651	-203.0430351129712	512.738385315012	1264.343282503423	-218.6056425378689	743.4950382272128	1361.26087113994	-181.5975622096348	699.1005117778583	1434.279484325786	-346.8840374081964	653.5803785142408	1440.167943876058	-48.10793365931805	675.8503189277601	957.2774813753034	-335.8796681882959	652.1907891610085	969.2282466419013	-83.65133427916406	494.9238291193039	1024.794341472576	-239.6810201828722	486.1493083397767	1022.668823176602	-199.3043339511043	618.1001719793785	1039.232649231233	-373.577752877815	585.7327222455796	1043.149475327529	-53.33284004170952	578.2444524784587	884.3338520391335	-393.7439579447028	646.3507434137534	668.4452702017971	-308.9887905930279	515.0723272755911	607.648086385031	-360.5747727013471	453.2763920357201	487.7395343964049	-333.6558343735138	418.3320082675343	392.8421111913619	-295.3595801563525	270.504211501655	436.5286760999147	-329.2041140990037	208.4566600204494	340.6179677181991	-285.0897751892435	89.7628559442248	376.8253114993453	-301.9832231861134	55.7799071760544	217.0591197852077	-317.5626483443586	14.74311909839059	250.6218021406876	-348.5482943277634	58.56152604048318	416.6025876242077	-243.4864737068123	608.1488419138587	882.2638786881651	-33.54396974617848	758.9381843649976	759.0019140581518	-115.3596850477195	702.4777684179277	650.6845682413438	-40.26358898321786	751.1088499576673	507.8248616191603	-68.52211864399283	793.9729989605653	409.8597516372148	-120.1402570622208	720.3195428176006	293.9510202352401	-66.38032171337601	749.4351705681435	209.318261388354	-134.074151081351	691.6766968757885	105.3472784617396	-96.32548051112653	834.9884563350353	67.37872175269248	-128.1928591109585	806.0507036633819	44.54967010318362	-84.13158858593937	616.5137524161822	80.32666103535246	-134.9504546736558	
2	140	631.8801715464202	1474.209033878814	-202.4306912740263	512.0344615340803	1261.837991826313	-217.1734643431132	743.5113501504151	1357.784032719499	-181.9138526241319	697.7995418704577	1430.707942163479	-347.5848938522724	654.3668258039613	1436.982749825223	-47.23346139086736	674.9401958630069	953.1677949253919	-335.6204418131647	651.5962101215093	967.1517552338236	-83.0568149881247	493.994474535342	1021.699051951767	-240.5307909034077	485.3444852546245	1020.213990914267	-200.1208303555916	616.8822501581418	1034.574034306661	-373.8001031537635	585.3244668132857	1040.641012692725	-52.94612555739172	578.4541178935837	879.4807233417273	-392.9428288288534	649.2553633635589	665.812050183249	-309.204031231526	519.2034891803543	603.2522339561541	-360.7660980811224	459.986072691552	483.1808737238071	-334.6666933855971	424.9634922003339	389.4155967646261	-295.2960001375373	277.7117224041171	434.6347001103703	-330.1624673747162	214.4431327929153	340.7374212710188	-284.7349523790022	96.46763544371966	378.6870272841685	-302.3318200528741	60.80384554699835	219.3258467572816	-316.3050600117617	20.29790552128803	252.967980255054	-347.8846018794446	65.48818214625757	419.5110516812619	-244.414894584453	607.4831735848438	881.1185545823956	-32.50282147633244	758.0115272741335	755.9216649854359	-112.6203937938535	699.5134010291471	647.428086011343	-40.79434836925962	749.6579717598835	505.9943405761895	-68.68698010139134	790.262477070796	408.1824336710332	-122.1028141830002	715.4859455060118	293.1754109074058	-66.74640601492624	741.0568473371761	208.1425265763769	-134.9057801278611	680.9469451576015	105.7476227923478	-96.75860969650778	823.5391473104569	66.94880862246255	-128.5066846097041	794.4456336686939	44.61434716923166	-84.20113012977029	605.1374890219344	80.82621655110694	-135.178837108386	
3	140.004	632.2160572856034	1471.83108955626	-201.8262043252035	511.3353200176881	1259.362839492661	-215.7622531502171	743.5256730754746	1354.331597797727	-182.2261434848022	696.528694037963	1427.158258257018	-348.2741014719603	655.1461079372812	1433.821873825259	-46.37124280692156	674.0343795087798	949.1006048010964	-335.3603037712323	651.0070805650846	965.1029647034503	-82.46752450478944	493.0743599044374	1018.647768183604	-241.366950915631	484.5493828415254	1017.791730229672	-200.9219893128459	615.664498790559	1029.980962118705	-374.0262280866046	584.9221698141	1038.179996273128	-52.570976206324	578.6715859260523	874.6909435621808	-392.1543397530421	652.1369749858569	663.2018560320835	-309.395296622541	523.3095387579898	598.8885631080923	-360.9578415408418	466.648738303212	478.6498083170796	-335.6596015518653	431.54425906054	386.0074195838718	-295.2288586866292	284.8657678784616	432.7520388753267	-331.112021134927	220.3894592583536	340.8536666179195	-284.3825321459743	103.1262576263845	380.5305016898076	-302.6813175769713	65.79579704373921	221.5690981228456	-315.0501062143214	25.81449227718885	255.2839363052339	-347.2241846315145	72.36111551465456	422.3980870355598	-245.3493490448791	606.8071181611306	879.9801289692406	-31.48420697243465	757.0897936994696	752.8980468800419	-109.9686577750064	696.6217340501244	644.2272225140715	-41.30214302787096	748.2254651056572	504.1696965539538	-68.84522202754407	786.5836305122406	406.4942838830134	-124.0193786548793	710.68776560983	292.38208386544	-67.10432861227294	732.7527764194419	206.9694108107356	-135.7242970331743	670.32059949378	106.1358837559721	-97.18055042030952	812.1987979981731	66.52317403625605	-128.8104123964456	782.9536496732585	44.67642306155912	-84.26511693712334	593.8692911024638	81.31369319425119	-135.4018743361879	
4	140.008	632.5501451471672	1469.498855312793	-201.239422957531	510.6441801119519	1256.955107770397	-214.3828284641676	743.5343836267215	1350.937217522645	-182.5464983174945	695.2911254952946	1423.666435004522	-348.9487072503365	655.9272238557311	1430.715975681954	-45.54041180172066	673.1192711470168	945.1288667587687	-335.1025527710496	650.4262508207139	963.1105185155426	-81.88999361428046	492.1629677627681	1015.692782118456	-242.1663572721232	483.7663301012406	1015.443051215018	-201.6837962279112	614.4250370956109	1025.523274820865	-374.2540647862508	584.5266222046213	1035.816405723311	-52.2126084993973	578.8787579123028	870.0335720049737	-391.383766140432	654.9980581778613	660.6770070435774	-309.5368815954099	527.4130155902608	594.6121541219438	-361.1466927991369	473.301257732605	474.1952612756016	-336.6153312758689	438.1174055230956	382.6552520506328	-295.1444950225467	292.003896433986	430.8799725323842	-332.0445059225275	226.3498207766004	340.9474691442451	-284.0293407539513	109.7790753903458	382.2966869574527	-303.035134346966	70.83954365576537	223.7187461835258	-313.789961951804	31.3672578027107	257.4819911938081	-346.5624717754266	79.19962332397856	425.1983346793555	-246.3038547623003	606.1085968567924	878.854262831777	-30.50983234702917	756.1424282689123	749.9535755806348	-107.4859905662602	693.8106471661497	641.1186343252134	-41.77211266137216	746.7474065539562	502.3414003956833	-68.99438283481619	782.878987995691	404.770393223609	-125.8461777990256	705.8615112011989	291.5513669268133	-67.44583222668837	724.4914469336694	205.7978225415959	-136.5170535677002	659.7893025186986	106.5031787460007	-97.5792865139157	800.9618715417404	66.10534779852806	-129.0951792461471	771.5730445792316	44.73408786182256	-84.31953636270529	582.7048022986538	81.78298015880766	-135.6128531763064	
